<?xml version="1.0" encoding="UTF-8"?>
<!-- Generated by Pixelmator Pro 3.7 -->
<svg width="256" height="256" viewBox="0 0 256 256" xmlns="http://www.w3.org/2000/svg">
    <path id="Path" fill="#326ce5" stroke="#1565c0" stroke-width="4" d="M 248 128 C 248 194.27417 194.27417 248 128 248 C 61.72583 248 8 194.27417 8 128 C 8 61.72583 61.72583 8 128 8 C 194.27417 8 248 61.72583 248 128 Z"/>
    <g id="Group">
        <path id="path1" fill="#ffffff" stroke="none" d="M 148 128 C 148 139.045685 139.0457 148 128 148 C 116.954308 148 108 139.045685 108 128 C 108 116.9543 116.954308 108 128 108 C 139.0457 108 148 116.9543 148 128 Z"/>
        <g id="g1">
            <path id="path2" fill="#000000" stroke="#ffffff" stroke-width="8" stroke-linecap="round" d="M 128 48 L 128 98"/>
            <path id="path3" fill="#000000" stroke="#ffffff" stroke-width="8" stroke-linecap="round" d="M 197.300003 88 L 154 113"/>
            <path id="path4" fill="#000000" stroke="#ffffff" stroke-width="8" stroke-linecap="round" d="M 197.300003 168 L 154 143"/>
            <path id="path5" fill="#000000" stroke="#ffffff" stroke-width="8" stroke-linecap="round" d="M 128 208 L 128 158"/>
            <path id="path6" fill="#000000" stroke="#ffffff" stroke-width="8" stroke-linecap="round" d="M 58.699997 168 L 102 143"/>
            <path id="path7" fill="#000000" stroke="#ffffff" stroke-width="8" stroke-linecap="round" d="M 58.699997 88 L 102 113"/>
        </g>
        <g id="g2">
            <path id="path8" fill="#ffffff" stroke="none" d="M 140 48 C 140 54.627411 134.627411 60 128 60 C 121.372581 60 116 54.627411 116 48 C 116 41.372589 121.372581 36 128 36 C 134.627411 36 140 41.372589 140 48 Z"/>
            <path id="path9" fill="#ffffff" stroke="none" d="M 209.300003 88 C 209.300003 94.627411 203.927414 100 197.300003 100 C 190.672577 100 185.300003 94.627411 185.300003 88 C 185.300003 81.372589 190.672577 76 197.300003 76 C 203.927414 76 209.300003 81.372589 209.300003 88 Z"/>
            <path id="path10" fill="#ffffff" stroke="none" d="M 209.300003 168 C 209.300003 174.627411 203.927414 180 197.300003 180 C 190.672577 180 185.300003 174.627411 185.300003 168 C 185.300003 161.372589 190.672577 156 197.300003 156 C 203.927414 156 209.300003 161.372589 209.300003 168 Z"/>
            <path id="path11" fill="#ffffff" stroke="none" d="M 140 208 C 140 214.627411 134.627411 220 128 220 C 121.372581 220 116 214.627411 116 208 C 116 201.372589 121.372581 196 128 196 C 134.627411 196 140 201.372589 140 208 Z"/>
            <path id="path12" fill="#ffffff" stroke="none" d="M 70.699997 168 C 70.699997 174.627411 65.327415 180 58.699997 180 C 52.072586 180 46.699997 174.627411 46.699997 168 C 46.699997 161.372589 52.072586 156 58.699997 156 C 65.327415 156 70.699997 161.372589 70.699997 168 Z"/>
            <path id="path13" fill="#ffffff" stroke="none" d="M 70.699997 88 C 70.699997 94.627411 65.327415 100 58.699997 100 C 52.072586 100 46.699997 94.627411 46.699997 88 C 46.699997 81.372589 52.072586 76 58.699997 76 C 65.327415 76 70.699997 81.372589 70.699997 88 Z"/>
        </g>
    </g>
</svg>
